# xmcd
#
# Track frame offsets:
#	150
#	18770
#	35449
#	59569
#	75092
#	89510
#	104604
#	119153
#	135256
#	152446
#	172901
#	189394
#
# Disc length: 2754 seconds
# Revision: 1
# Processed by: cddbd v1.5.2PL0 Copyright (c) Steve Scherf et al.
# Submitted via: dBpowerAMP V12.0
#
DISCID=8c0ac00c
DTITLE=Guyanne McCall - In The Genes
DYEAR=2013
DGENRE=Country
TTITLE0=The Fall
TTITLE1=Faded Jeans
TTITLE2=One Tear At A Time (Featuring Cody McCall)
TTITLE3=Yesterday's News
TTITLE4=Just Ask Me (Featuring Darrell McCall)
TTITLE5=I'm Leavin' You Today
TTITLE6=Moment Of Weakness
TTITLE7=Will You Ever Know
TTITLE8=Lying In Silence
TTITLE9=Weak In The Knees
TTITLE10=Meet Me In Memphis
TTITLE11=I've Never Been Loved So Much
EXTD=
EXTT0=
EXTT1=
EXTT2=
EXTT3=
EXTT4=
EXTT5=
EXTT6=
EXTT7=
EXTT8=
EXTT9=
EXTT10=
EXTT11=
PLAYORDER=
